<svg width="534" height="579" viewBox="0 0 534 579" fill="none" xmlns="http://www.w3.org/2000/svg">
<path d="M446.33 24.6133L424.877 116.69L424.787 117.077H301.558V116.768H291.486C297.88 102.735 308.373 88.9348 324.316 77.3047L325.556 76.4004H291.717L291.687 76.4043C288.236 76.8231 284.613 78.6718 281.009 81.5732C277.399 84.4787 273.775 88.4668 270.316 93.2207C263.399 102.729 257.111 115.35 252.92 128.649C248.73 141.946 246.624 155.957 248.106 168.239C249.59 180.528 254.674 191.131 264.903 197.5L265.024 197.575H300.29L300.483 196.614C295.448 194.509 290.81 188.669 287.603 180.308C285.694 175.333 284.308 169.496 283.644 163.091H301.558V162.78H361.802L361.656 163.396L340.394 253.384L340.303 253.769H271.764L253.821 327.239L253.728 327.62H87.5273L87.6807 327C104.071 260.68 139.206 118.659 148.623 81.1436C153.371 62.2296 165.97 48.7675 179.748 39.6318C193.523 30.4986 208.512 25.6626 218.128 24.0068L218.17 24H446.473L446.33 24.6133ZM244.775 47.8076C208.837 70.3169 191.086 111.537 186.371 148.527C184.013 167.028 184.91 184.507 188.444 198.104C191.968 211.662 198.16 221.519 206.523 224.503L206.604 224.532H256.622L256.85 223.587C242.566 216.276 234.804 202.571 231.946 185.827C229.087 169.076 231.147 149.332 236.472 130.071C241.795 110.814 250.373 92.0769 260.51 77.3457C270.66 62.5961 282.32 51.94 293.778 48.7129L293.643 47.7314H244.897L244.775 47.8076Z" fill="#6942FF"/>
</svg>