<svg width="534" height="579" viewBox="0 0 534 579" fill="none" xmlns="http://www.w3.org/2000/svg">
<path d="M446.33 24.6133L424.877 116.69L424.787 117.077H301.558V116.768H291.486C297.88 102.735 308.373 88.9348 324.316 77.3047L325.556 76.4004H291.717L291.687 76.4043C288.236 76.8231 284.613 78.6718 281.009 81.5732C277.399 84.4787 273.775 88.4668 270.316 93.2207C263.399 102.729 257.111 115.35 252.92 128.649C248.73 141.946 246.624 155.957 248.106 168.239C249.59 180.528 254.674 191.131 264.903 197.5L265.024 197.575H300.29L300.483 196.614C295.448 194.509 290.81 188.669 287.603 180.308C285.694 175.333 284.308 169.496 283.644 163.091H301.558V162.78H361.802L361.656 163.396L340.394 253.384L340.303 253.769H271.764L253.821 327.239L253.728 327.62H87.5273L87.6807 327C104.071 260.68 139.206 118.659 148.623 81.1436C153.371 62.2296 165.97 48.7675 179.748 39.6318C193.523 30.4986 208.512 25.6626 218.128 24.0068L218.17 24H446.473L446.33 24.6133ZM244.775 47.8076C208.837 70.3169 191.086 111.537 186.371 148.527C184.013 167.028 184.91 184.507 188.444 198.104C191.968 211.662 198.16 221.519 206.523 224.503L206.604 224.532H256.622L256.85 223.587C242.566 216.276 234.804 202.571 231.946 185.827C229.087 169.076 231.147 149.332 236.472 130.071C241.795 110.814 250.373 92.0769 260.51 77.3457C270.66 62.5961 282.32 51.94 293.778 48.7129L293.643 47.7314H244.897L244.775 47.8076Z" fill="#6942FF"/>
<path d="M57.856 486.62V397.276H117.12V414.556H77.312V432.86H111.232V450.012H77.312V486.62H57.856ZM141.179 412.252C137.339 412.252 134.523 411.399 132.731 409.692C131.024 407.9 130.171 405.639 130.171 402.908V400.092C130.171 397.361 131.024 395.143 132.731 393.436C134.523 391.644 137.339 390.748 141.179 390.748C145.019 390.748 147.792 391.644 149.499 393.436C151.291 395.143 152.187 397.361 152.187 400.092V402.908C152.187 405.639 151.291 407.9 149.499 409.692C147.792 411.399 145.019 412.252 141.179 412.252ZM131.707 419.42H150.651V486.62H131.707V419.42ZM191.884 486.62C185.313 486.62 180.321 484.956 176.908 481.628C173.58 478.3 171.916 473.436 171.916 467.036V434.14H162.444V419.42H167.18C169.74 419.42 171.489 418.823 172.428 417.628C173.367 416.348 173.836 414.556 173.836 412.252V401.244H190.86V419.42H204.172V434.14H190.86V471.9H203.148V486.62H191.884ZM252.479 414.556V486.62H233.023V414.556H208.831V397.276H276.671V414.556H252.479ZM308.614 488.156C303.494 488.156 298.929 487.345 294.918 485.724C290.907 484.017 287.494 481.671 284.678 478.684C281.947 475.612 279.857 471.9 278.406 467.548C277.041 463.196 276.358 458.332 276.358 452.956C276.358 447.665 277.041 442.887 278.406 438.62C279.771 434.268 281.777 430.556 284.422 427.484C287.153 424.412 290.481 422.065 294.406 420.444C298.331 418.737 302.811 417.884 307.846 417.884C313.393 417.884 318.129 418.823 322.054 420.7C326.065 422.577 329.307 425.095 331.782 428.252C334.342 431.409 336.177 435.079 337.286 439.26C338.481 443.356 339.078 447.665 339.078 452.188V457.82H295.942V458.844C295.942 463.281 297.137 466.823 299.526 469.468C301.915 472.028 305.67 473.308 310.79 473.308C314.715 473.308 317.915 472.54 320.39 471.004C322.865 469.383 325.169 467.463 327.302 465.244L336.774 477.02C333.787 480.519 329.862 483.249 324.998 485.212C320.219 487.175 314.758 488.156 308.614 488.156ZM308.23 431.836C304.39 431.836 301.361 433.116 299.142 435.676C297.009 438.151 295.942 441.479 295.942 445.66V446.684H319.494V445.532C319.494 441.436 318.555 438.151 316.678 435.676C314.886 433.116 312.07 431.836 308.23 431.836ZM379.593 488.156C374.558 488.156 370.078 487.345 366.153 485.724C362.228 484.017 358.942 481.671 356.297 478.684C353.652 475.612 351.646 471.9 350.281 467.548C348.916 463.196 348.233 458.332 348.233 452.956C348.233 447.58 348.916 442.759 350.281 438.492C351.646 434.14 353.652 430.428 356.297 427.356C358.942 424.284 362.228 421.937 366.153 420.316C370.078 418.695 374.558 417.884 379.593 417.884C386.42 417.884 392.094 419.42 396.617 422.492C401.225 425.564 404.51 429.873 406.473 435.42L391.113 442.076C390.516 439.516 389.278 437.34 387.401 435.548C385.524 433.756 382.921 432.86 379.593 432.86C375.753 432.86 372.852 434.14 370.889 436.7C368.926 439.175 367.945 442.545 367.945 446.812V459.356C367.945 463.623 368.926 466.993 370.889 469.468C372.852 471.943 375.753 473.18 379.593 473.18C383.006 473.18 385.694 472.284 387.657 470.492C389.705 468.615 391.198 466.183 392.137 463.196L406.857 469.596C404.638 475.996 401.182 480.689 396.489 483.676C391.881 486.663 386.249 488.156 379.593 488.156ZM418.582 391.9H437.526V430.812H438.294C439.489 427.313 441.579 424.284 444.566 421.724C447.553 419.164 451.691 417.884 456.982 417.884C463.894 417.884 469.099 420.188 472.598 424.796C476.182 429.404 477.974 435.975 477.974 444.508V486.62H459.03V446.044C459.03 441.692 458.347 438.492 456.982 436.444C455.617 434.311 453.185 433.244 449.686 433.244C448.15 433.244 446.657 433.457 445.206 433.884C443.755 434.225 442.433 434.823 441.238 435.676C440.129 436.529 439.233 437.596 438.55 438.876C437.867 440.071 437.526 441.479 437.526 443.1V486.62H418.582V391.9Z" fill="#262630"/>
</svg>
